<svg width="89" height="30" viewBox="0 0 89 30" fill="none" xmlns="http://www.w3.org/2000/svg">
<g clip-path="url(#clip0_119_281)">
<path d="M85.9474 18.0445L88.4085 19.6852C87.6097 20.8616 85.6993 22.8801 82.3964 22.8801C78.2949 22.8801 75.2405 19.7068 75.2405 15.67C75.2405 11.3742 78.3273 8.45996 82.0511 8.45996C85.7964 8.45996 87.6312 11.4389 88.225 13.0471L88.5488 13.8675L78.8994 17.861C79.6334 19.3075 80.7776 20.0414 82.3964 20.0414C84.0156 20.0414 85.138 19.2426 85.9474 18.0445V18.0445ZM78.3814 15.4435L84.8251 12.7666C84.4688 11.8708 83.4112 11.2341 82.1481 11.2341C80.5401 11.2341 78.3058 12.6588 78.3814 15.4435Z" fill="#FF302F"/>
<path d="M70.5886 1.10961H73.697V22.2217H70.5886V1.10944V1.10961Z" fill="#20B15A"/>
<path d="M65.6883 9.02116H68.6889V21.8438C68.6889 27.1649 65.548 29.356 61.8349 29.356C58.338 29.356 56.2333 27.0031 55.4453 25.0927L58.1976 23.9485C58.694 25.1249 59.8921 26.5175 61.8349 26.5175C64.2202 26.5175 65.6883 25.0386 65.6883 22.2756V21.2395H65.5804C64.8679 22.1029 63.508 22.88 61.781 22.88C58.176 22.88 54.873 19.739 54.873 15.6916C54.873 11.6224 58.176 8.44922 61.781 8.44922C63.4972 8.44922 64.8679 9.21556 65.5804 10.0574H65.6883V9.02133V9.02116ZM65.904 15.6916C65.904 13.1443 64.2095 11.2878 62.0508 11.2878C59.8705 11.2878 58.0356 13.1443 58.0356 15.6916C58.0356 18.2064 59.8705 20.0305 62.0508 20.0305C64.2097 20.0414 65.9042 18.2064 65.9042 15.6916H65.904Z" fill="#3686F7"/>
<path d="M37.8089 15.6376C37.8089 19.7931 34.571 22.8476 30.5989 22.8476C26.627 22.8476 23.3889 19.7824 23.3889 15.6376C23.3889 11.4605 26.627 8.41681 30.5989 8.41681C34.571 8.41681 37.8089 11.4605 37.8089 15.6376ZM34.6573 15.6376C34.6573 13.0473 32.7791 11.2661 30.5989 11.2661C28.4187 11.2661 26.5406 13.0473 26.5406 15.6376C26.5406 18.2064 28.4187 20.009 30.5989 20.009C32.7793 20.009 34.6573 18.2064 34.6573 15.6376Z" fill="#FF302F"/>
<path d="M53.5565 15.67C53.5565 19.8255 50.3184 22.88 46.3465 22.88C42.3744 22.88 39.1365 19.8253 39.1365 15.67C39.1365 11.4929 42.3744 8.45996 46.3465 8.45996C50.3184 8.45996 53.5565 11.4822 53.5565 15.67V15.67ZM50.3939 15.67C50.3939 13.0797 48.5159 11.2985 46.3356 11.2985C44.1554 11.2985 42.2772 13.0797 42.2772 15.67C42.2772 18.2388 44.1554 20.0414 46.3356 20.0414C48.5266 20.0414 50.3939 18.228 50.3939 15.67Z" fill="#FFBA40"/>
<path d="M11.5376 19.7176C7.01508 19.7176 3.47497 16.0693 3.47497 11.5468C3.47497 7.02447 7.01508 3.37625 11.5376 3.37625C13.977 3.37625 15.7578 4.33682 17.0746 5.56733L19.2442 3.3979C17.4093 1.63859 14.9592 0.299957 11.5376 0.299957C5.34222 0.300131 0.128906 5.35162 0.128906 11.5468C0.128906 17.7424 5.34222 22.7937 11.5376 22.7937C14.8837 22.7937 17.4093 21.6928 19.3845 19.642C21.4136 17.6128 22.0396 14.7633 22.0396 12.4535C22.0396 11.7303 21.9533 10.9856 21.8561 10.4352H11.5376V13.4357H18.8879C18.6721 15.3139 18.0785 16.5983 17.2042 17.4724C16.1464 18.5411 14.4735 19.7176 11.5376 19.7176V19.7176Z" fill="#3686F7"/>
</g>
<defs>
<clipPath id="clip0_119_281">
<rect width="88.7107" height="29.1082" fill="white" transform="translate(0 0.255249)"/>
</clipPath>
</defs>
</svg>