<svg width="34" height="32" viewBox="0 0 34 32" fill="none" xmlns="http://www.w3.org/2000/svg">
<path d="M32.0589 5.82304C30.7951 3.26292 28.558 1.34115 25.8677 0.504507C22.7745 -0.468824 19.4185 -0.0202586 16.6765 1.73301C13.9344 -0.0202586 10.5784 -0.468824 7.48525 0.504507C4.79492 1.34115 2.55783 3.26292 1.29403 5.82304C-0.183005 8.90729 -0.404982 12.4609 0.676381 15.711C1.70347 18.7126 3.39988 21.4306 5.63229 23.6514C8.66795 26.6205 12.0168 29.2382 15.6176 31.4569C15.8171 31.5949 16.053 31.6681 16.2941 31.6666C16.829 31.6545 17.2955 31.2928 17.4495 30.7708C17.6036 30.2488 17.4102 29.6851 16.9706 29.3744C13.5139 27.2442 10.2983 24.732 7.3823 21.8835C5.40881 19.9409 3.89944 17.5626 2.97051 14.932C2.08962 12.3159 2.25876 9.45128 3.4411 6.96166C4.42772 4.99801 6.15994 3.53103 8.23525 2.90159C10.8645 2.0614 13.7303 2.56939 15.9265 4.26494C16.3633 4.59457 16.9603 4.59457 17.3971 4.26494C19.5942 2.57175 22.4589 2.06396 25.0883 2.90159C27.1498 3.54525 28.8649 5.01667 29.8383 6.97664C31.048 9.4681 31.228 12.3493 30.3383 14.9769C29.4133 17.6139 27.9036 19.9979 25.9265 21.9434C24.5538 23.348 23.079 24.6451 21.5147 25.8237C21.2455 26.0112 21.0622 26.3018 21.0068 26.6293C20.9514 26.9567 21.0285 27.2931 21.2206 27.5616C21.5985 28.1176 22.3433 28.2641 22.8971 27.8912L22.9853 27.8163C24.6524 26.57 26.2209 25.1924 27.6765 23.6963C29.8966 21.4682 31.5868 18.7521 32.6178 15.756C33.7378 12.5014 33.5367 8.92596 32.0589 5.82304Z" fill="#130F26"/>
</svg>
